<?xml version="1.0" standalone="no"?>
<!DOCTYPE svg PUBLIC "-//W3C//DTD SVG 20010904//EN"
 "http://www.w3.org/TR/2001/REC-SVG-20010904/DTD/svg10.dtd">
<svg version="1.0" xmlns="http://www.w3.org/2000/svg"
 width="300.000000pt" height="300.000000pt" viewBox="0 0 300.000000 300.000000"
 preserveAspectRatio="xMidYMid meet">
<metadata>
Created by potrace 1.14, written by Peter Selinger 2001-2017
</metadata>
<g transform="translate(0.000000,300.000000) scale(0.100000,-0.100000)"
fill="#000000" stroke="none">
<path d="M1380 2935 c0 -7 21 -22 48 -33 26 -11 96 -44 156 -73 l108 -52 -98
-49 c-105 -53 -111 -53 -188 -18 -111 52 -257 108 -254 98 2 -6 75 -41 162
-78 l159 -68 -34 -15 c-83 -37 -81 -38 -257 30 -91 35 -167 61 -170 58 -3 -3
-3 -7 -1 -9 4 -4 126 -52 252 -99 31 -11 57 -25 57 -29 0 -4 -27 -21 -60 -38
l-60 -30 -72 26 c-40 14 -84 29 -98 34 -14 4 -49 17 -77 29 -29 11 -53 18 -53
14 0 -4 -5 -2 -12 5 -29 29 -76 4 -62 -32 5 -13 150 -76 174 -76 4 0 29 -10
56 -22 47 -20 48 -21 24 -31 -14 -6 -43 -19 -64 -29 -40 -20 -40 -20 -110 2
-39 12 -78 24 -86 27 -89 34 -246 81 -252 75 -5 -5 79 -37 186 -71 150 -49
195 -68 199 -82 4 -16 12 -18 48 -15 32 3 73 -5 149 -31 206 -68 187 -58 184
-106 -1 -23 -3 -53 -3 -67 -1 -19 -9 -29 -31 -37 -25 -10 -29 -16 -26 -42 3
-27 -2 -34 -48 -64 -58 -39 -128 -105 -197 -187 -105 -126 -251 -381 -301
-525 -23 -69 -27 -93 -24 -175 6 -194 87 -316 271 -408 66 -33 183 -70 242
-77 21 -3 52 -7 68 -10 17 -3 64 -7 105 -8 l75 -4 3 -45 c3 -45 2 -46 -43 -72
-44 -24 -49 -25 -75 -11 -44 23 -111 19 -151 -8 -88 -59 -113 -211 -47 -284
17 -18 18 -25 8 -43 -16 -29 -24 -73 -24 -130 l-1 -45 63 -3 c59 -3 62 -2 63
20 1 38 9 72 19 82 7 7 9 -10 7 -47 l-4 -57 343 0 c380 0 353 -5 349 68 -1 18
2 29 6 25 7 -7 16 -47 18 -80 1 -9 22 -13 71 -13 72 0 74 2 70 45 -4 46 -10
68 -33 119 l-25 54 23 47 c52 109 2 252 -101 289 -49 17 -115 13 -154 -11 -28
-16 -32 -16 -57 -1 -16 9 -44 19 -64 23 -31 6 -37 12 -46 46 -9 36 -9 40 11
44 213 44 290 78 377 164 98 98 137 216 126 384 -10 155 -67 314 -170 474
-139 216 -355 402 -497 428 -23 4 -39 14 -45 28 -6 12 -20 23 -31 25 -32 5
-50 94 -21 106 9 3 8 7 -4 15 -9 6 -16 27 -18 55 l-2 46 53 -21 c84 -34 138
-45 148 -30 17 28 -2 53 -50 66 -3 1 -12 5 -20 8 -8 3 -40 16 -72 27 l-56 21
-4 51 c-2 30 1 52 8 55 6 2 87 -25 180 -61 92 -36 171 -63 176 -58 4 4 -70 37
-165 73 -94 36 -173 71 -174 76 -4 11 85 49 106 44 7 -1 87 -34 177 -72 154
-65 201 -81 179 -60 -6 5 -82 39 -170 76 -88 38 -162 69 -164 71 -5 4 184 94
199 94 12 0 41 -13 243 -109 71 -33 127 -55 125 -49 -2 6 -83 49 -179 95 -97
46 -175 89 -177 98 -2 9 -15 15 -33 15 -32 0 -50 7 -236 98 -71 34 -123 54
-123 47z m-495 -335 c8 -13 -5 -13 -25 0 -13 8 -13 10 2 10 9 0 20 -4 23 -10z
m120 -46 c24 -11 25 -13 5 -8 -14 4 -38 13 -55 20 -24 11 -25 13 -5 8 14 -4
39 -13 55 -20z m95 -34 c8 -5 11 -10 5 -10 -5 0 -17 5 -25 10 -8 5 -10 10 -5
10 6 0 17 -5 25 -10z m245 -17 c2 -26 -3 -27 -42 -12 -27 10 -27 11 -8 25 27
20 48 14 50 -13z m-78 -70 l73 -28 0 -48 c0 -43 -2 -48 -17 -42 -10 4 -40 13
-68 21 -27 8 -59 19 -70 24 -11 5 -44 16 -73 25 -29 10 -51 19 -49 21 10 10
103 53 116 53 8 1 47 -11 88 -26z m264 -51 c-7 -2 -18 1 -23 6 -8 8 -4 9 13 5
13 -4 18 -8 10 -11z m49 -12 c8 -5 11 -10 5 -10 -5 0 -17 5 -25 10 -8 5 -10
10 -5 10 6 0 17 -5 25 -10z"/>
</g>
</svg>
